<svg width="137" height="42" viewBox="0 0 137 42" fill="none" xmlns="http://www.w3.org/2000/svg">
<rect x="1.25" y="0.75" width="41.5" height="40.5" rx="20.25" fill="black" fill-opacity="0.2"/>
<rect x="1.25" y="0.75" width="41.5" height="40.5" rx="20.25" stroke="#121212" stroke-width="1.5"/>
<path d="M2.375 21C2.375 10.4376 10.9376 1.875 21.5 1.875H22.5C33.0624 1.875 41.625 10.4376 41.625 21C41.625 31.5624 33.0624 40.125 22.5 40.125H21.5C10.9376 40.125 2.375 31.5624 2.375 21Z" stroke="black" stroke-opacity="0.08" stroke-width="0.75"/>
<rect x="32.25" y="0.75" width="41.5" height="40.5" rx="20.25" fill="#68624E"/>
<rect x="32.25" y="0.75" width="41.5" height="40.5" rx="20.25" stroke="#121212" stroke-width="1.5"/>
<path d="M33.375 21C33.375 10.4376 41.9376 1.875 52.5 1.875H53.5C64.0624 1.875 72.625 10.4376 72.625 21C72.625 31.5624 64.0624 40.125 53.5 40.125H52.5C41.9376 40.125 33.375 31.5624 33.375 21Z" stroke="black" stroke-opacity="0.08" stroke-width="0.75"/>
<rect x="63.25" y="0.75" width="41.5" height="40.5" rx="20.25" fill="#4E6168"/>
<rect x="63.25" y="0.75" width="41.5" height="40.5" rx="20.25" stroke="#121212" stroke-width="1.5"/>
<path d="M64.375 21C64.375 10.4376 72.9376 1.875 83.5 1.875H84.5C95.0624 1.875 103.625 10.4376 103.625 21C103.625 31.5624 95.0624 40.125 84.5 40.125H83.5C72.9376 40.125 64.375 31.5624 64.375 21Z" stroke="black" stroke-opacity="0.08" stroke-width="0.75"/>
<rect x="94.25" y="0.75" width="41.5" height="40.5" rx="20.25" fill="#5F684E"/>
<rect x="94.25" y="0.75" width="41.5" height="40.5" rx="20.25" stroke="#121212" stroke-width="1.5"/>
<path d="M95.375 21C95.375 10.4376 103.938 1.875 114.5 1.875H115.5C126.062 1.875 134.625 10.4376 134.625 21C134.625 31.5624 126.062 40.125 115.5 40.125H114.5C103.938 40.125 95.375 31.5624 95.375 21Z" stroke="black" stroke-opacity="0.08" stroke-width="0.75"/>
</svg>
