<svg width="40" height="40" viewBox="0 0 40 40" fill="none" xmlns="http://www.w3.org/2000/svg">
<path d="M25.85 4.71655H14.15C10 4.71655 9.08335 6.78322 8.55002 9.31655L6.66669 18.3332H33.3334L31.45 9.31655C30.9167 6.78322 30 4.71655 25.85 4.71655Z" stroke="black" stroke-width="2.5" stroke-linecap="round" stroke-linejoin="round"/>
<path d="M36.65 33.0333C36.8333 34.9833 35.2667 36.6666 33.2667 36.6666H30.1333C28.3333 36.6666 28.0833 35.8999 27.7667 34.9499L27.4333 33.9499C26.9667 32.5833 26.6667 31.6666 24.2667 31.6666H15.7333C13.3333 31.6666 12.9833 32.6999 12.5667 33.9499L12.2333 34.9499C11.9167 35.8999 11.6667 36.6666 9.86665 36.6666H6.73332C4.73332 36.6666 3.16665 34.9833 3.34999 33.0333L4.28332 22.8833C4.51665 20.3833 4.99999 18.3333 9.36665 18.3333H30.6333C35 18.3333 35.4833 20.3833 35.7167 22.8833L36.65 33.0333Z" stroke="black" stroke-width="2.5" stroke-linecap="round" stroke-linejoin="round"/>
<path d="M6.66667 13.3333H5" stroke="black" stroke-width="2.5" stroke-linecap="round" stroke-linejoin="round"/>
<path d="M35 13.3333H33.3333" stroke="black" stroke-width="2.5" stroke-linecap="round" stroke-linejoin="round"/>
<path d="M20 5V8.33333" stroke="black" stroke-width="2.5" stroke-linecap="round" stroke-linejoin="round"/>
<path d="M17.5 8.33325H22.5" stroke="black" stroke-width="2.5" stroke-linecap="round" stroke-linejoin="round"/>
<path d="M10 25H15" stroke="black" stroke-width="2.5" stroke-linecap="round" stroke-linejoin="round"/>
<path d="M25 25H30" stroke="black" stroke-width="2.5" stroke-linecap="round" stroke-linejoin="round"/>
</svg>
