<svg width="87" height="86" viewBox="0 0 87 86" fill="none" xmlns="http://www.w3.org/2000/svg">
<circle cx="43.5958" cy="43" r="43" fill="#D9D9D9"/>
<rect x="6.40664" y="5.81079" width="74.3784" height="74.3784" rx="37.1892" fill="#EDEDED"/>
<path d="M43.0011 54.887C38.238 54.887 35.8565 54.8869 34.3769 53.1461C32.8972 51.4054 32.8972 48.6035 32.8972 43C32.8972 37.3964 32.8972 34.5946 34.3769 32.8538C35.8565 31.113 38.238 31.113 43.0011 31.113C47.7641 31.113 50.1456 31.113 51.6253 32.8538C52.8164 34.2551 53.0488 36.3439 53.0941 40.0283" stroke="#141B34" stroke-width="1.78304" stroke-linecap="round" stroke-linejoin="round"/>
<path d="M38.8408 38.2451H47.1616M38.8408 44.1886H42.4069" stroke="#141B34" stroke-width="1.78304" stroke-linecap="round" stroke-linejoin="round"/>
<path d="M52.6405 50.2575C53.6425 49.5281 54.2938 48.346 54.2938 47.0118C54.2938 44.7961 52.4977 43 50.2819 43H49.9848C47.769 43 45.9729 44.7961 45.9729 47.0118C45.9729 48.346 46.6242 49.5281 47.6261 50.2575M52.6405 50.2575C51.9786 50.7394 51.1635 51.0237 50.2819 51.0237H49.9848C49.1032 51.0237 48.2881 50.7394 47.6261 50.2575M52.6405 50.2575L53.3333 52.4387C53.5976 53.2707 53.7297 53.6867 53.6936 53.9457C53.6184 54.4848 53.1787 54.8851 52.6596 54.887C52.4102 54.8879 52.0364 54.6918 51.2891 54.2996C50.9686 54.1314 50.8084 54.0473 50.6445 53.9978C50.3105 53.8971 49.9562 53.8971 49.6222 53.9978C49.4583 54.0473 49.298 54.1314 48.9776 54.2996C48.2302 54.6918 47.8565 54.8879 47.6071 54.887C47.088 54.8851 46.6483 54.4848 46.5731 53.9457C46.5369 53.6867 46.6691 53.2707 46.9334 52.4387L47.6261 50.2575" stroke="#141B34" stroke-width="1.78304"/>
</svg>
