<svg width="40" height="40" viewBox="0 0 40 40" fill="none" xmlns="http://www.w3.org/2000/svg">
<path d="M15 23.3333L17.9214 25.6703C18.6178 26.2275 19.6295 26.1376 20.2168 25.4664L25 19.9999M26.6667 6.66659H28.3333C32.0152 6.66659 35 9.65135 35 13.3333V29.9999C35 33.6818 32.0152 36.6666 28.3333 36.6666H11.6667C7.98477 36.6666 5 33.6818 5 29.9999V13.3333C5 9.65135 7.98477 6.66659 11.6667 6.66659H13.3333M26.6667 6.66659C26.6667 8.50753 25.1743 9.99992 23.3333 9.99992H16.6667C14.8257 9.99992 13.3333 8.50753 13.3333 6.66659M26.6667 6.66659C26.6667 4.82564 25.1743 3.33325 23.3333 3.33325H16.6667C14.8257 3.33325 13.3333 4.82564 13.3333 6.66659" stroke="black" stroke-width="2.5" stroke-linecap="round"/>
</svg>
